<svg xmlns="http://www.w3.org/2000/svg" width="289.84" height="316.39"  xmlns:v="https://vecta.io/nano"><path d="M226.92 2.28c5.47-2 11.87-3.52 17.37-.82 3.27 2.12 3.78 6.43 3.94 10 .52 8.13-2.95 15.79-6.72 22.77-7 12.34-15.81 23.49-24.93 34.29l-38.72 45.23c-2.44 2.93-5.27 5.52-7.52 8.61l13.69 15.12q-23.21.12-46.4 0-.63-23.67-.75-47.33c6.53 4.47 11.65 10.83 18.24 15.12 10.39-7.43 19.91-16.06 29.5-24.51 8.94-8.24 17.95-16.44 26.17-25.42 8.85-9.25 17.45-18.91 24.07-29.93 2.06-3.71 4.12-7.76 4-12.11a4.92 4.92 0 0 0-4.61-5c-5.58-.21-11 1.35-16.31 3a134.78 134.78 0 0 0-27.57 13.12 18.37 18.37 0 0 1 3.94-3.52c10.21-7.23 20.84-14.17 32.61-18.62z" fill="#0161b0"/><path d="M108.2 21.43a74.52 74.52 0 0 1 57.94-5.62 75.52 75.52 0 0 1 43.47 35.55c.58 1.24 1.55 2.53 1.18 4-8.22 9-17.23 17.18-26.17 25.42-9.59 8.45-19.11 17.08-29.5 24.51-6.59-4.29-11.71-10.65-18.24-15.12q.1 23.66.75 47.33 23.19.14 46.4 0c-4.41-5.17-9.06-10.14-13.69-15.12 2.25-3.09 5.08-5.68 7.52-8.61 13.24-14.78 26-30 38.72-45.23 2.42 11.19 3.18 22.89.64 34.13a75 75 0 0 1-31.32 46.79 74.25 74.25 0 0 1-44.8 12.83c-13.92 0-27.27-5.21-39-12.32l-.23-.21a11.22 11.22 0 0 0-1-.92c-9.59-6.63-17.27-15.66-23.15-25.68a494.11 494.11 0 0 1 50-48.17 60.48 60.48 0 0 1 7-5.26c1.1 0 1.77 1.08 2.57 1.7l13.2 13.23c.79-14.55.22-29.14.29-43.7l-.87-1.1c-12-.38-24.11 0-36.16-.17-2.59 0-5.31-.31-7.74.8 5.35 4.68 10.25 9.84 15.12 15q-24.8 25.76-47.6 53.23l-1.07.31a13.66 13.66 0 0 1-1.93-5.36 75.8 75.8 0 0 1 5.09-47.53 74.25 74.25 0 0 1 32.58-34.71z" fill="#bcbdc1"/><path d="M105.84 40.47c2.43-1.11 5.15-.8 7.74-.8l36.16.17.87 1.1c-.07 14.56.5 29.15-.29 43.7l-13.2-13.23c-.8-.62-1.47-1.68-2.57-1.7a60.48 60.48 0 0 0-7 5.26 494.11 494.11 0 0 0-50 48.17c-8.28 9.59-16.65 19.4-22.14 30.91-1.48 3.52-3.27 7.9-1.07 11.47 2.8 3.34 7.77 2.83 11.59 2 7.69-2 14.5-6.31 21.4-10.11 4.56-2.71 9.33-5.14 13.37-8.59a11.22 11.22 0 0 1 1 .92c-4.12 2-7.34 5.25-11.08 7.78-8.82 6.26-17.97 12.48-28.15 16.53-4.7 1.82-10.12 3.15-14.94 1a11.5 11.5 0 0 1-5.9-9.64c-.63-6.84 2.45-13.23 5.46-19.15 6.66-12.43 15.2-23.73 24.07-34.64a5.42 5.42 0 0 0 1.3-2.58l1.07-.31Q96.29 81.3 121 55.48c-4.91-5.17-9.81-10.33-15.16-15.01z" fill="#db1920"/><path d="M74.61 235.72c-.1-14.6 13.14-27.34 27.53-27.81 9.44-.57 20 1.63 26.31 9.25 5.83 6.81 7 16.19 6.49 24.82-6.28.17-12.57.22-18.85 0 1-5.52 0-11.9-4.37-15.81-4.67-5-14.5-3-16.49 3.61-1.61 3.54.49 7.37 3 9.88 8.62 8.94 20 14.54 28.78 23.37 5.56 6 9.7 13.71 10 22 .7 8.18-.93 17.27-7.14 23.13-6 6-14.72 7.79-22.87 8.17-9.32.53-19.75-1.58-26-9.1-6.86-8.24-8.26-19.66-7.3-30l20.12.05a110.5 110.5 0 0 0 1 14.54c.76 5.9 7.08 10.78 13 9.25 5.51-1.5 10.16-7.12 9.11-13-.68-3.38-1.8-7.13-4.74-9.23-10.35-8-20.48-16.23-30.49-24.61-5.37-4.51-7.31-11.79-7.09-18.51zM0 210.52h38.48c7.58-.07 15.43 4 18.78 11 2.84 5.89 2.69 12.67 2 19-.92 7-4.21 14.74-11.3 17.48 7.43.66 11 8.42 12.17 14.87 1.43 8.36 2.23 17.37-1 25.44-3.73 9-13.2 14.66-22.67 15.48H-.06q0-51.66 0-103.31m20.22 14v27.46c3.86.52 8 .52 11.56-1.15a11.81 11.81 0 0 0 6.75-9.36c.57-4.76.48-10.39-3.29-13.89-3.92-3.86-9.93-3.88-15-3.06m0 43.36v30.48c5.14 1.05 11 1.38 15.42-2s5.3-9 5.27-14.13c-.15-4.38-1-9.11-4.22-12.36-3.37-3.58-8.65-4.41-13.35-3.93-1.17.33-3.64-.13-3.07 1.96zM152 210.52q10.35 0 20.69 0 11.92 31.35 24 62.63c.75 1.86 1.15 3.95 2.54 5.49q.17-34 0-68.08c6.11-.11 12.21 0 18.3-.05v103.32c-7.09 0-14.2.11-21.3-.06l-24.76-66.85-.26 3v63.9c-6.43.12-12.85 0-19.26.06q.05-51.71.05-103.36zm82.67-.01h20.75l.06 87.2h34.36c-.1 5.35 0 10.69 0 16.05h-55.08l-.09-103.25z" fill="#21201e"/></svg>